<?xml version="1.0" encoding="utf-8"?>
<svg version="1.1" xmlns:xlink="http://www.w3.org/1999/xlink" width="76px" height="80px" xmlns="http://www.w3.org/2000/svg">
  <g transform="matrix(1 0 0 1 -79 -41 )">
    <path d="M 56.529203539823 9.73949579831933  C 56.520796460177 6.72268907563025  54.0491150442478 4.26050420168067  51.0393805309735 4.26050420168067  L 43.8681415929204 4.26050420168067  C 42.6575221238938 2.02521008403361  40.3035398230088 0.504201680672269  37.5880530973451 0.504201680672269  C 34.8725663716814 0.504201680672269  32.5101769911504 2.02521008403361  31.3163716814159 4.26050420168067  L 24.1451327433628 4.26050420168067  C 21.1269911504425 4.26050420168067  18.6637168141593 6.72268907563025  18.6637168141593 9.73949579831933  L 18.6637168141593 10.3193277310924  C 18.6637168141593 13.3361344537815  21.1269911504425 15.7983193277311  24.1451327433628 16  L 51.0477876106195 16  C 54.0659292035398 15.7983193277311  56.529203539823 13.3361344537815  56.529203539823 10.3193277310924  L 56.529203539823 9.73949579831933  Z M 75 18.1680672268908  C 75.3778761061947 14.9327731092437  72.7296460176991 12.2857142857143  69.4929203539823 12.2857142857143  L 62.3637168141593 12.2857142857143  L 62.3637168141593 12.5042016806723  C 62.3637168141593 16.4285714285714  59.1522123893805 19.6302521008403  55.2345132743363 20  L 20.2274336283186 20  C 16.3013274336283 19.6302521008403  13.0982300884956 16.4201680672269  13.0982300884956 12.5042016806723  L 13.0982300884956 12.2857142857143  L 5.96902654867257 12.2857142857143  C 2.73230088495575 12.2857142857143  0.084070796460177 14.9327731092437  0 18.1680672268908  L 0 73.9747899159664  C 0.084070796460177 77.2100840336134  2.73230088495575 79.8571428571429  5.96902654867257 79  L 69.4929203539823 79  C 72.7296460176991 79.8571428571429  75.3778761061947 77.2100840336134  75 73.9747899159664  L 75 18.1680672268908  Z M 11.6353982300885 47.0168067226891  C 10.6769911504425 45.8403361344538  10.8619469026549 44.0840336134454  12.0473451327434 43.1260504201681  L 28.3823008849558 29.890756302521  C 28.474778761062 29.8151260504202  28.5672566371682 29.7478991596639  28.6681415929204 29.6890756302521  C 29.7442477876106 28.9915966386555  31.2070796460177 29.109243697479  32.1486725663717 30.0504201680672  L 43.5823008849558 41.4789915966387  L 54.8309734513274 29.0756302521008  L 49.0469026548673 29.0756302521008  C 48.0044247787611 29.0756302521008  47.1553097345133 28.2268907563025  47.1553097345133 27.1848739495798  C 47.1553097345133 26.1428571428571  48.0044247787611 25.2941176470588  49.0469026548673 26  L 60.2115044247788 26  C 61.253982300885 25.2941176470588  62.1030973451327 26.1428571428571  62 27.1848739495798  L 62 38.3361344537815  C 62.1030973451327 39.3781512605042  61.253982300885 40.2268907563025  60.2115044247788 40.2268907563025  C 59.1690265486726 40.2268907563025  58.3199115044248 39.3781512605042  58.3199115044248 38.3361344537815  L 58.3199115044248 33.4873949579832  L 45.9446902654867 47.109243697479  C 45.8522123893805 47.2352941176471  45.7597345132743 47.3529411764706  45.6420353982301 47.4621848739496  C 44.5659292035398 48.5378151260504  42.8004424778761 48.5378151260504  41.7159292035398 47.4621848739496  L 29.9796460176991 35.7310924369748  L 15.5362831858407 47.4285714285714  C 14.3508849557522 48.3865546218487  12.5938053097345 48.2016806722689  11.6353982300885 47.0168067226891  Z M 61.7247787610619 64  C 63.2548672566372 64.6890756302521  64.4991150442478 65.9411764705882  64.4991150442478 67.4621848739496  C 64.4991150442478 68.9831932773109  63.2548672566372 70.2352941176471  61.7247787610619 70  L 13.9557522123894 70  C 12.4256637168142 70.2352941176471  11.1814159292035 68.9915966386555  11.1814159292035 67.4621848739496  C 11.1814159292035 65.9327731092437  12.4256637168142 64.6890756302521  13.9557522123894 64  L 61.7247787610619 64  Z M 61.7247787610619 53  C 63.2548672566372 53.6974789915966  64.4991150442478 54.9411764705882  64.4991150442478 56.4705882352941  C 64.4991150442478 58  63.2548672566372 59.2436974789916  61.7247787610619 59  L 13.9557522123894 59  C 12.4256637168142 59.2436974789916  11.1814159292035 58  11.1814159292035 56.4705882352941  C 11.1814159292035 54.9495798319328  12.4256637168142 53.6974789915966  13.9557522123894 53  L 61.7247787610619 53  Z " fill-rule="nonzero" fill="#00a29a" stroke="none" transform="matrix(1 0 0 1 79 41 )" />
  </g>
</svg>