<?xml version="1.0" encoding="utf-8"?>
<svg version="1.1" xmlns:xlink="http://www.w3.org/1999/xlink" width="47px" height="57px" xmlns="http://www.w3.org/2000/svg">
  <g transform="matrix(1 0 0 1 -279 -55 )">
    <path d="M 2.96516455696203 56.6803298969072  C 1.63250632911393 56.6803298969072  0.490227848101271 55.7777319587629  1 54.6494845360825  L 1 30.4297731958763  C 0.490227848101267 29.3015257731959  1.63250632911392 28.3989278350515  2.96516455696203 28.3989278350515  C 4.37397468354431 28.3989278350515  5.44010126582279 29.3391340206185  6 30.4297731958763  L 6 54.6494845360825  C 5.44010126582279 55.7777319587629  4.29782278481013 56.6803298969072  2.96516455696203 56.6803298969072  Z M 36.3958481012658 28.3989278350515  C 37.7285063291139 28.3989278350515  38.8707848101266 29.9784742268041  38 31.1443298969072  L 38 54.6494845360825  C 38.8707848101266 55.7777319587629  37.7285063291139 56.6803298969072  36.3958481012658 56.6803298969072  C 34.9870379746835 56.6803298969072  33.9209113924051 55.7401237113402  34 54.6494845360825  L 34 31.1443298969072  C 33.9209113924051 30.0160824742268  35.0631898734177 28.3989278350515  36.3958481012658 28.3989278350515  Z M 25.6965063291139 56.6803298969072  C 24.3638481012658 56.6803298969072  23.2215696202532 55.4768659793814  23 54.6494845360825  L 23 37.1992577319588  C 23.2215696202532 36.3342680412371  24.3638481012658 35.6949278350515  25.6965063291139 35.6949278350515  C 27.1053164556962 35.6949278350515  28.1714430379747 36.3718762886598  28 37.1992577319588  L 28 54.6494845360825  C 28.1714430379747 55.5144742268041  27.029164556962 56.6803298969072  25.6965063291139 56.6803298969072  Z M 14.7306329113924 56.6803298969072  C 13.3598987341772 56.6803298969072  12.2556962025317 55.6649072164948  13 54.9503505154639  L 13 40.0198762886598  C 12.2556962025316 39.3053195876289  13.3979746835443 38.7411958762887  14.7306329113924 38.7411958762887  C 16.1394430379747 38.7411958762887  17.2055696202532 39.3429278350515  18 40.0198762886598  L 18 54.9503505154639  C 17.2055696202532 55.6649072164948  16.0632911392405 56.6803298969072  14.7306329113924 56.6803298969072  Z M 27.2576202531646 27.1202474226804  L 19.3758987341772 28.812618556701  C 19.1093670886076 28.812618556701  18.8047594936709 28.812618556701  18.5382278481013 28.5117525773196  C 18.2716962025316 28.2484948453608  18.2716962025316 27.6843711340206  18.2716962025316 27.3835051546392  L 19.718582278481 19.5985979381443  C 19.718582278481 19.3353402061856  19.9851139240506 19.0344742268041  19.9851139240506 19.0344742268041  L 36.9669873417721 2.1859793814433  C 38.1092658227848 1.09534020618556  39.5180759493671 0.531216494845359  40.9268860759494 0.531216494845359  C 42.3356962025317 0.531216494845359  43.7445063291139 1.09534020618557  44.8487088607595 2.22358762886598  C 45.9529113924051 3.35183505154639  46.5240506329114 4.74334020618556  46.5240506329114 6.13484536082474  C 46.5240506329114 7.52635051546391  45.9529113924051 8.91785567010309  44.8106329113924 10.0084948453608  L 27.8287594936709 26.8569896907216  C 27.5622278481013 27.1202474226804  27.5622278481013 27.1202474226804  27.2576202531646 27.1202474226804  Z M 36.3958481012658 6.13484536082474  L 22.2315949367089 20.5011958762887  L 21.0512405063291 26.0672164948454  L 26.4199493670886 24.9765773195876  L 40.8507341772152 10.6102268041237  L 36.3958481012658 6.13484536082474  Z M 43.1733670886076 3.95356701030928  C 42.6022278481013 3.38944329896907  41.7645569620253 3.12618556701031  40.9268860759494 3.08857731958763  C 40.0892151898734 3.08857731958763  39.2515443037975 3.35183505154639  38.6804050632911 3.9159587628866  L 38.1092658227848 4.4800824742268  L 42.5641518987342 8.95546391752577  L 43.1352911392405 8.39134020618556  C 43.7064303797468 7.82721649484536  43.9729620253165 6.99983505154639  44.0110379746835 6.17245360824742  C 44.0110379746835 5.34507216494845  43.7445063291139 4.51769072164948  43.1733670886076 3.95356701030928  Z " fill-rule="nonzero" fill="#00a29a" stroke="none" transform="matrix(1 0 0 1 279 55 )" />
  </g>
</svg>